<svg width="12" height="16" viewBox="0 0 12 16" fill="none" xmlns="http://www.w3.org/2000/svg">
<path d="M6 0.5C4.40928 0.501843 2.88425 1.12329 1.75943 2.22801C0.634624 3.33274 0.00188039 4.83054 3.76592e-06 6.39286C-0.00145878 7.66951 0.423117 8.91146 1.20873 9.92857C1.20873 9.92857 1.37237 10.1402 1.39909 10.1707L6 15.5L10.6031 10.168C10.6271 10.1396 10.7913 9.92857 10.7913 9.92857L10.7918 9.92696C11.5769 8.91023 12.0013 7.6689 12 6.39286C11.9981 4.83054 11.3654 3.33274 10.2406 2.22801C9.11576 1.12329 7.59072 0.501843 6 0.5ZM6 8.53571C5.56848 8.53571 5.14665 8.41004 4.78785 8.17458C4.42905 7.93912 4.1494 7.60445 3.98426 7.21289C3.81913 6.82134 3.77592 6.39048 3.86011 5.97481C3.94429 5.55913 4.15209 5.17731 4.45722 4.87763C4.76236 4.57794 5.15112 4.37386 5.57435 4.29117C5.99758 4.20849 6.43627 4.25093 6.83495 4.41312C7.23362 4.5753 7.57437 4.84996 7.81412 5.20235C8.05386 5.55474 8.18182 5.96904 8.18182 6.39286C8.1811 6.96096 7.95099 7.50559 7.54198 7.9073C7.13297 8.30901 6.57843 8.53501 6 8.53571Z" fill="#B23C3C"/>
</svg>
