<svg width="16" height="12" viewBox="0 0 16 12" fill="none" xmlns="http://www.w3.org/2000/svg">
<path d="M1.84667 11.8333C1.46278 11.8333 1.1425 11.705 0.885833 11.4483C0.629167 11.1917 0.500556 10.8711 0.5 10.4867V1.51332C0.5 1.12943 0.628611 0.809156 0.885833 0.55249C1.14306 0.295823 1.46306 0.167212 1.84583 0.166656H14.1542C14.5375 0.166656 14.8575 0.295267 15.1142 0.55249C15.3708 0.809712 15.4994 1.12999 15.5 1.51332V10.4875C15.5 10.8708 15.3714 11.1911 15.1142 11.4483C14.8569 11.7055 14.5369 11.8339 14.1542 11.8333H1.84667ZM8 6.09666L14.6667 1.73749L14.41 0.99999L8 5.16666L1.59 0.99999L1.33333 1.73749L8 6.09666Z" fill="#4D4D4D"/>
</svg>
