<svg width="15" height="16" viewBox="0 0 15 16" fill="none" xmlns="http://www.w3.org/2000/svg">
<path d="M5.42993 4.52381L2.16393 1.25614L2.54941 0.873888C3.04754 0.375371 3.91794 0.375371 4.41607 0.873888L5.81189 2.27079C6.06184 2.52093 6.19913 2.85298 6.19913 3.20529C6.19913 3.5576 6.06184 3.88965 5.81365 4.13891L5.42993 4.52381ZM11.3512 9.68162C11.8493 9.1831 12.7197 9.1831 13.2178 9.68162L14.6136 11.0785C14.8627 11.3287 15 11.6607 15 12.013C15 12.3653 14.8627 12.6974 14.6119 12.9484L14.2273 13.3289L10.9683 10.0674L11.3512 9.68162ZM0.974054 2.45047L1.2856 2.13868L4.54897 5.40458L3.97691 5.9762C3.93593 6.01711 3.90342 6.06571 3.88123 6.11921C3.85905 6.17272 3.84763 6.23007 3.84763 6.288C3.84763 6.34592 3.85905 6.40328 3.88123 6.45678C3.90342 6.51029 3.93593 6.55888 3.97691 6.59979L8.89308 11.5198C8.977 11.5997 9.08838 11.6442 9.20419 11.6442C9.31999 11.6442 9.43137 11.5997 9.5153 11.5198L10.0874 10.9473L13.3454 14.215L13.0339 14.5267C12.8051 14.7557 11.9373 15.5 10.3443 15.5C8.92212 15.5 6.59869 14.8729 3.61168 11.8844C-2.34915 5.91719 0.83236 2.59228 0.974054 2.45047Z" fill="#B23C3C"/>
</svg>
