<svg width="15" height="12" viewBox="0 0 15 12" fill="none" xmlns="http://www.w3.org/2000/svg">
<path d="M14.9136 0.893039C14.85 0.774574 14.7544 0.675355 14.6373 0.606088C14.5202 0.536822 14.386 0.50014 14.2491 0.5H0.749129C0.612511 0.500552 0.478632 0.537505 0.361889 0.606885C0.245146 0.676266 0.149956 0.775449 0.0865551 0.893768C0.0231546 1.01209 -0.00605745 1.14507 0.00206052 1.2784C0.0101785 1.41174 0.0553193 1.54039 0.132628 1.65052L6.88263 11.1832C6.95143 11.2809 7.0435 11.3608 7.1509 11.416C7.25829 11.4712 7.3778 11.5 7.49913 11.5C7.62046 11.5 7.73996 11.4712 7.84736 11.416C7.95476 11.3608 8.04682 11.2809 8.11563 11.1832L14.8656 1.65052C14.9437 1.54062 14.9894 1.41189 14.9979 1.27834C15.0064 1.14479 14.9772 1.01152 14.9136 0.893039ZM7.49913 9.47758L2.18013 1.96657H12.8181L7.49913 9.47758Z" fill="#4D4D4D"/>
</svg>
