<svg width="15" height="15" viewBox="0 0 15 15" fill="none" xmlns="http://www.w3.org/2000/svg">
<path d="M5.42993 4.02381L2.16393 0.756143L2.54941 0.373888C3.04754 -0.124629 3.91794 -0.124629 4.41607 0.373888L5.81189 1.77079C6.06184 2.02093 6.19913 2.35298 6.19913 2.70529C6.19913 3.0576 6.06184 3.38965 5.81365 3.63891L5.42993 4.02381ZM11.3512 9.18162C11.8493 8.6831 12.7197 8.6831 13.2178 9.18162L14.6136 10.5785C14.8627 10.8287 15 11.1607 15 11.513C15 11.8653 14.8627 12.1974 14.6119 12.4484L14.2273 12.8289L10.9683 9.56739L11.3512 9.18162ZM0.974054 1.95047L1.2856 1.63868L4.54897 4.90458L3.97691 5.4762C3.93593 5.51711 3.90342 5.56571 3.88123 5.61921C3.85905 5.67272 3.84763 5.73007 3.84763 5.788C3.84763 5.84592 3.85905 5.90328 3.88123 5.95678C3.90342 6.01029 3.93593 6.05888 3.97691 6.09979L8.89308 11.0198C8.977 11.0997 9.08838 11.1442 9.20419 11.1442C9.31999 11.1442 9.43137 11.0997 9.5153 11.0198L10.0874 10.4473L13.3454 13.715L13.0339 14.0267C12.8051 14.2557 11.9373 15 10.3443 15C8.92212 15 6.59869 14.3729 3.61168 11.3844C-2.34915 5.41719 0.83236 2.09228 0.974054 1.95047Z" fill="#B23C3C"/>
</svg>
