<svg width="31" height="31" viewBox="0 0 31 31" fill="none" xmlns="http://www.w3.org/2000/svg">
<path d="M15.5001 0.916626C7.45008 0.916626 0.916748 7.44996 0.916748 15.5C0.916748 23.55 7.45008 30.0833 15.5001 30.0833C23.5501 30.0833 30.0834 23.55 30.0834 15.5C30.0834 7.44996 23.5501 0.916626 15.5001 0.916626ZM22.2667 10.8333C22.048 13.1375 21.1001 18.7375 20.6188 21.3187C20.4147 22.4125 20.0063 22.777 19.6272 22.8208C18.7813 22.8937 18.1397 22.2666 17.323 21.727C16.0397 20.8812 15.3105 20.3562 14.0709 19.5395C12.6272 18.5916 13.5605 18.0666 14.3917 17.2208C14.6105 17.002 18.3438 13.6041 18.4167 13.2979C18.4269 13.2515 18.4255 13.2033 18.4128 13.1576C18.4001 13.1118 18.3764 13.0699 18.3438 13.0354C18.2563 12.9625 18.1397 12.9916 18.0376 13.0062C17.9063 13.0354 15.8647 14.3916 11.8834 17.075C11.3001 17.4687 10.7751 17.6729 10.3084 17.6583C9.78341 17.6437 8.79175 17.3666 8.048 17.1187C7.12925 16.827 6.41466 16.6666 6.473 16.1562C6.50216 15.8937 6.86675 15.6312 7.55217 15.3541C11.8105 13.502 14.6397 12.277 16.0542 11.6937C20.1084 10.002 20.9397 9.71038 21.4938 9.71038C21.6105 9.71038 21.8876 9.73954 22.0626 9.88538C22.2084 10.002 22.2522 10.1625 22.2667 10.2791C22.2522 10.3666 22.2813 10.6291 22.2667 10.8333Z" fill="#2AABEE"/>
</svg>
