<svg width="31" height="31" viewBox="0 0 31 31" fill="none" xmlns="http://www.w3.org/2000/svg">
<path d="M15.5016 0.916626C23.5559 0.916626 30.0849 7.44558 30.0849 15.5C30.0849 23.5543 23.5559 30.0833 15.5016 30.0833C12.9244 30.0875 10.3925 29.4054 8.16615 28.1073L0.924067 30.0833L2.89573 22.8383C1.59649 20.6112 0.913928 18.0783 0.918233 15.5C0.918233 7.44558 7.44719 0.916626 15.5016 0.916626ZM10.5316 8.64579L10.2399 8.65746C10.0511 8.66896 9.86654 8.71857 9.6974 8.80329C9.5392 8.89288 9.39479 9.00487 9.26865 9.13579C9.09365 9.30058 8.99448 9.4435 8.88802 9.58204C8.34862 10.2834 8.05819 11.1444 8.06261 12.0291C8.06552 12.7437 8.25219 13.4393 8.54386 14.0898C9.14032 15.4052 10.1218 16.7979 11.4168 18.0885C11.7289 18.3991 12.0351 18.7112 12.3647 19.0014C13.9738 20.4181 15.8913 21.4398 17.9647 21.9852L18.793 22.112C19.0628 22.1266 19.3326 22.1062 19.6039 22.0931C20.0286 22.0712 20.4433 21.9562 20.8186 21.7562C21.0096 21.6578 21.196 21.5508 21.3772 21.4354C21.3772 21.4354 21.4399 21.3945 21.5595 21.3041C21.7564 21.1583 21.8774 21.0548 22.0407 20.8841C22.1618 20.7587 22.2668 20.6114 22.347 20.4437C22.4607 20.206 22.5745 19.7525 22.6211 19.3748C22.6561 19.086 22.6459 18.9285 22.6416 18.8308C22.6357 18.6748 22.5059 18.5129 22.3645 18.4443L21.5157 18.0637C21.5157 18.0637 20.247 17.511 19.4711 17.1581C19.39 17.1226 19.303 17.1024 19.2145 17.0983C19.1147 17.088 19.0139 17.0993 18.9188 17.1312C18.8237 17.1632 18.7366 17.2151 18.6632 17.2835C18.6559 17.2806 18.5582 17.3637 17.5039 18.6412C17.4433 18.7225 17.36 18.784 17.2644 18.8177C17.1688 18.8515 17.0654 18.8561 16.9672 18.8308C16.8722 18.8053 16.7791 18.7732 16.6886 18.7345C16.5078 18.6587 16.4451 18.6295 16.3211 18.577C15.4842 18.2118 14.7092 17.7183 14.0243 17.1143C13.8405 16.9539 13.6699 16.7789 13.4949 16.6097C12.9212 16.0603 12.4212 15.4387 12.0074 14.7606L11.9214 14.622C11.8596 14.5289 11.8096 14.4285 11.7726 14.3231C11.7172 14.1087 11.8616 13.9366 11.8616 13.9366C11.8616 13.9366 12.2159 13.5487 12.3807 13.3387C12.5411 13.1345 12.6768 12.9362 12.7643 12.7948C12.9364 12.5177 12.9903 12.2333 12.8999 12.0131C12.4916 11.0156 12.0686 10.0225 11.6341 9.03662C11.548 8.84121 11.2928 8.70121 11.0609 8.6735C10.9822 8.66475 10.9034 8.656 10.8247 8.65017C10.6288 8.64044 10.4326 8.64239 10.237 8.656L10.5316 8.64579Z" fill="#60D669"/>
</svg>
