<svg width="60" height="57" viewBox="0 0 60 57" fill="none" xmlns="http://www.w3.org/2000/svg">
<path d="M56.25 21.1667H15.4167V12.4167C15.4167 9.19958 18.033 6.58333 21.25 6.58333C24.4671 6.58333 27.0834 9.19958 27.0834 12.4167H32.9167C32.9167 5.9825 27.6842 0.75 21.25 0.75C14.8159 0.75 9.58337 5.9825 9.58337 12.4167V21.1667H3.75004C2.97649 21.1667 2.23463 21.474 1.68765 22.0209C1.14066 22.5679 0.833374 23.3098 0.833374 24.0833V29.9167C0.833374 37.5175 5.71587 43.9837 12.5 46.3958V56.1667H18.3334V47.4167H41.6667V56.1667H47.5V46.3958C54.2842 43.9837 59.1667 37.5175 59.1667 29.9167V24.0833C59.1667 23.3098 58.8594 22.5679 58.3124 22.0209C57.7655 21.474 57.0236 21.1667 56.25 21.1667ZM53.3334 29.9167C53.3334 36.3508 48.1009 41.5833 41.6667 41.5833H18.3334C11.8992 41.5833 6.66671 36.3508 6.66671 29.9167V27H53.3334V29.9167Z" fill="#ADADAD"/>
</svg>
