<svg width="42" height="66" viewBox="0 0 42 66" fill="none" xmlns="http://www.w3.org/2000/svg">
<path d="M11.5209 65.0834C10.0625 65.0834 8.78699 64.609 7.69421 63.6601C6.60143 62.7112 5.95685 61.5086 5.76046 60.0522L0.583374 21.3334H41.4167L36.2396 60.0522C36.0452 61.5105 35.4006 62.7141 34.3059 63.663C33.2112 64.6119 31.9356 65.0854 30.4792 65.0834H11.5209ZM11.5209 59.2501H30.4792L34.7084 27.1667H7.21879L11.5209 59.2501ZM21 44.6667C23.4306 44.6667 25.4966 43.8161 27.198 42.1147C28.8993 40.4133 29.75 38.3473 29.75 35.9167V30.0834H23.9167V35.9167C23.9167 36.7431 23.6367 37.4363 23.0767 37.9963C22.5167 38.5563 21.8245 38.8354 21 38.8334C20.1756 38.8315 19.4834 38.5515 18.9234 37.9934C18.3634 37.4354 18.0834 36.7431 18.0834 35.9167V30.0834H12.25V35.9167C12.25 38.3473 13.1007 40.4133 14.8021 42.1147C16.5035 43.8161 18.5695 44.6667 21 44.6667ZM29.75 18.4167C28.5348 18.4167 27.5023 17.9919 26.6525 17.1422C25.8028 16.2924 25.377 15.259 25.375 14.0417C25.3731 12.8245 25.7989 11.792 26.6525 10.9442C27.5061 10.0965 28.5386 9.67064 29.75 9.66675C30.9614 9.66286 31.9949 10.0887 32.8505 10.9442C33.706 11.7998 34.1309 12.8323 34.125 14.0417C34.1192 15.2512 33.6943 16.2847 32.8505 17.1422C32.0066 17.9997 30.9731 18.4245 29.75 18.4167ZM15.1667 15.5001C13.125 15.5001 11.3993 14.7952 9.98962 13.3855C8.5799 11.9758 7.87504 10.2501 7.87504 8.20842C7.87504 6.16675 8.5799 4.44105 9.98962 3.03133C11.3993 1.62161 13.125 0.916748 15.1667 0.916748C17.2084 0.916748 18.9341 1.62161 20.3438 3.03133C21.7535 4.44105 22.4584 6.16675 22.4584 8.20842C22.4584 10.2501 21.7535 11.9758 20.3438 13.3855C18.9341 14.7952 17.2084 15.5001 15.1667 15.5001Z" fill="#ADADAD"/>
</svg>
