<svg width="45" height="60" viewBox="0 0 45 60" fill="none" xmlns="http://www.w3.org/2000/svg">
<path d="M35.6667 41.6667C38.0972 41.6667 40.1632 42.5174 41.8646 44.2188C43.566 45.9202 44.4167 47.9862 44.4167 50.4167C44.4167 52.8473 43.566 54.9132 41.8646 56.6146C40.1632 58.316 38.0972 59.1667 35.6667 59.1667C33.8194 59.1667 32.154 58.632 30.6704 57.5625C29.1868 56.4931 28.13 55.0834 27.5 53.3334H8.97916L6.06249 57.8542C5.62499 58.5348 5.00569 58.9606 4.20458 59.1317C3.40347 59.3028 2.66166 59.1687 1.97916 58.7292C1.29666 58.2898 0.871799 57.6695 0.704577 56.8684C0.537355 56.0673 0.670549 55.3264 1.10416 54.6459L12.625 37C9.5625 35.5903 6.9618 33.5127 4.82291 30.7671C2.68402 28.0216 1.42013 24.9707 1.03124 21.6146C0.934021 20.7396 1.17708 19.9735 1.76041 19.3163C2.34374 18.6591 3.07291 18.3314 3.94791 18.3334H38.2187C39.0937 18.3334 39.8229 18.662 40.4062 19.3192C40.9896 19.9764 41.2326 20.7416 41.1354 21.6146C40.7465 24.9688 39.4826 28.0196 37.3437 30.7671C35.2049 33.5146 32.6042 35.5923 29.5417 37L31.2187 39.625C30.1979 40.1112 29.3599 40.5973 28.7046 41.0834C28.0493 41.5695 27.3318 42.25 26.5521 43.125L23.6354 38.6042C23.2465 38.7014 22.8333 38.75 22.3958 38.75H19.7708C19.3333 38.75 18.9201 38.7014 18.5312 38.6042L12.7708 47.5H27.5C28.1319 45.75 29.1897 44.3403 30.6733 43.2709C32.1569 42.2014 33.8214 41.6667 35.6667 41.6667ZM35.6667 53.3334C36.493 53.3334 37.1862 53.0534 37.7462 52.4934C38.3062 51.9334 38.5853 51.2412 38.5833 50.4167C38.5814 49.5923 38.3014 48.9 37.7433 48.34C37.1853 47.78 36.493 47.5 35.6667 47.5C34.8403 47.5 34.148 47.78 33.59 48.34C33.0319 48.9 32.7519 49.5923 32.75 50.4167C32.748 51.2412 33.028 51.9343 33.59 52.4963C34.1519 53.0582 34.8442 53.3373 35.6667 53.3334ZM21.0833 32.9167C24 32.9167 26.6619 32.1146 29.0692 30.5105C31.4764 28.9063 33.2867 26.7917 34.5 24.1667H7.66666C8.93055 26.7917 10.7535 28.9063 13.1354 30.5105C15.5174 32.1146 18.1667 32.9167 21.0833 32.9167ZM11.3854 8.48962C10.559 7.46879 9.97569 6.4849 9.63541 5.53796C9.29513 4.59101 9.1493 3.53324 9.19791 2.36462C9.19791 1.92712 9.35638 1.56254 9.67333 1.27087C9.99027 0.979208 10.3665 0.833374 10.8021 0.833374C11.191 0.833374 11.5069 0.979208 11.75 1.27087C11.993 1.56254 12.1146 1.90282 12.1146 2.29171C12.066 3.26393 12.2244 4.1506 12.59 4.95171C12.9556 5.75282 13.5505 6.66476 14.375 7.68754C15.2014 8.75699 15.7974 9.76615 16.1629 10.715C16.5285 11.6639 16.6617 12.7207 16.5625 13.8855C16.5139 14.323 16.3437 14.6875 16.0521 14.9792C15.7604 15.2709 15.3958 15.4167 14.9583 15.4167C14.5694 15.4167 14.2535 15.2709 14.0104 14.9792C13.7674 14.6875 13.6458 14.3473 13.6458 13.9584C13.6944 12.9862 13.5369 12.0868 13.1733 11.2605C12.8097 10.4341 12.2137 9.51046 11.3854 8.48962ZM18.75 8.48962C17.9236 7.5174 17.3286 6.55782 16.965 5.61087C16.6014 4.66393 16.4429 3.58185 16.4896 2.36462C16.4896 1.92712 16.6481 1.56254 16.965 1.27087C17.2819 0.979208 17.6582 0.833374 18.0937 0.833374C18.4826 0.833374 18.7986 0.979208 19.0417 1.27087C19.2847 1.56254 19.4062 1.90282 19.4062 2.29171C19.3576 3.26393 19.5151 4.15157 19.8787 4.95462C20.2424 5.75768 20.8383 6.66865 21.6667 7.68754C22.495 8.70643 23.091 9.69129 23.4546 10.6421C23.8182 11.593 23.9514 12.6984 23.8542 13.9584C23.8055 14.3959 23.6354 14.7488 23.3437 15.0171C23.0521 15.2855 22.6875 15.4187 22.25 15.4167C21.8611 15.4167 21.5451 15.2709 21.3021 14.9792C21.059 14.6875 20.9375 14.3473 20.9375 13.9584C20.9861 12.9862 20.8403 12.0868 20.5 11.2605C20.1597 10.4341 19.5764 9.51046 18.75 8.48962ZM26.0417 8.48962C25.2153 7.5174 24.6203 6.55782 24.2567 5.61087C23.893 4.66393 23.7346 3.58185 23.7812 2.36462C23.7812 1.92712 23.9397 1.56254 24.2567 1.27087C24.5736 0.979208 24.9499 0.833374 25.3854 0.833374C25.7743 0.833374 26.0903 0.979208 26.3333 1.27087C26.5764 1.56254 26.6979 1.90282 26.6979 2.29171C26.6493 3.26393 26.8068 4.15157 27.1704 4.95462C27.534 5.75768 28.13 6.66865 28.9583 7.68754C29.7867 8.70643 30.3826 9.69129 30.7462 10.6421C31.1099 11.593 31.243 12.6984 31.1458 13.9584C31.0972 14.3959 30.9271 14.7488 30.6354 15.0171C30.3437 15.2855 29.9792 15.4187 29.5417 15.4167C29.1528 15.4167 28.8368 15.2709 28.5937 14.9792C28.3507 14.6875 28.2292 14.3473 28.2292 13.9584C28.2778 12.9862 28.1319 12.0868 27.7917 11.2605C27.4514 10.4341 26.868 9.51046 26.0417 8.48962Z" fill="#ADADAD"/>
</svg>
