<svg width="70" height="70" viewBox="0 0 70 70" fill="none" xmlns="http://www.w3.org/2000/svg">
<path d="M43.75 41.5625H39.375V28.4375H43.75V41.5625ZM43.75 52.5V63.4375C43.75 64.0177 43.5195 64.5741 43.1093 64.9843C42.6991 65.3945 42.1427 65.625 41.5625 65.625H28.4375C27.8573 65.625 27.3009 65.3945 26.8907 64.9843C26.4805 64.5741 26.25 64.0177 26.25 63.4375V52.5H30.625V61.25H39.375V52.5H43.75ZM26.25 41.5625V28.4375H30.625V41.5625H26.25ZM43.75 17.5H39.375V8.75H30.625V17.5H26.25V6.5625C26.25 5.98234 26.4805 5.42594 26.8907 5.0157C27.3009 4.60547 27.8573 4.375 28.4375 4.375H41.5625C42.1427 4.375 42.6991 4.60547 43.1093 5.0157C43.5195 5.42594 43.75 5.98234 43.75 6.5625V17.5Z" fill="#ADADAD"/>
<path d="M15.0937 17.5L10.2244 22.9688L15.0894 28.4375H52.5V17.5H15.0937ZM14.1094 13.125H54.6875C55.2676 13.125 55.824 13.3555 56.2343 13.7657C56.6445 14.1759 56.875 14.7323 56.875 15.3125V30.625C56.875 31.2052 56.6445 31.7616 56.2343 32.1718C55.824 32.582 55.2676 32.8125 54.6875 32.8125H14.1094C13.8002 32.8126 13.4945 32.7471 13.2124 32.6204C12.9304 32.4937 12.6784 32.3087 12.4731 32.0775L5.6656 24.4212C5.31011 24.0209 5.11377 23.5041 5.11377 22.9688C5.11377 22.4334 5.31011 21.9166 5.6656 21.5163L12.4731 13.86C12.6784 13.6288 12.9304 13.4438 13.2124 13.3171C13.4945 13.1904 13.8002 13.1249 14.1094 13.125ZM60.5106 47.0312L55.65 52.5H18.2394V41.5625H55.6456L60.5106 47.0312ZM56.63 37.1875H16.0562C15.4761 37.1875 14.9197 37.418 14.5094 37.8282C14.0992 38.2384 13.8687 38.7948 13.8687 39.375V54.6875C13.8687 55.2677 14.0992 55.8241 14.5094 56.2343C14.9197 56.6445 15.4761 56.875 16.0562 56.875H56.6344C56.9435 56.8751 57.2492 56.8096 57.5313 56.6829C57.8133 56.5562 58.0653 56.3712 58.2706 56.14L65.0781 48.4837C65.4336 48.0834 65.6299 47.5666 65.6299 47.0312C65.6299 46.4959 65.4336 45.9791 65.0781 45.5788L58.2706 37.9225C58.0653 37.6913 57.8133 37.5063 57.5313 37.3796C57.2492 37.2529 56.9435 37.1874 56.6344 37.1875H56.63Z" fill="#ADADAD"/>
</svg>
