<svg width="53" height="53" viewBox="0 0 53 53" fill="none" xmlns="http://www.w3.org/2000/svg">
<path d="M40.0131 0.75L29.8937 10.7994C27.3737 13.3216 27.3737 17.5041 29.8937 20.0306L25.9999 23.85L23.1999 21.05L6.7937 4.64375L5.2187 3.13875L3.6437 4.64156C1.7837 6.51398 0.739803 9.04608 0.739803 11.6853C0.739803 14.3245 1.7837 16.8566 3.6437 18.7291L17.3856 32.4666L0.366821 49.4853L3.51026 52.6353L20.529 35.6122L23.1278 38.1409L24.6984 39.7116L26.2034 38.1409L30.0971 34.2428L48.4874 52.6331L51.6374 49.4831L31.6743 29.5922L29.1434 27L32.9715 23.1063H33.0415L33.1071 23.1719C35.6403 25.5781 39.7134 25.5891 42.1984 23.1063L42.404 22.8306L52.2478 12.9869L49.1721 9.91125L39.1249 19.9562C38.1734 20.91 37.0753 20.9297 36.1171 20.0284L47.6671 8.40625L44.5937 5.33062L32.9715 16.8806C32.0703 15.9247 32.0899 14.8244 33.0415 13.875L43.0887 3.82563L40.0131 0.75ZM5.8312 9.98125L27.0281 31.1694L24.7006 33.4947L6.79151 15.5791C5.16838 13.9603 5.12026 11.9128 5.82901 9.97906L5.8312 9.98125Z" fill="#ADADAD"/>
</svg>
