<svg width="54" height="57" viewBox="0 0 54 57" fill="none" xmlns="http://www.w3.org/2000/svg">
<path d="M27 29.9999C26.1736 29.9999 25.4814 29.7199 24.9233 29.1599C24.3653 28.5999 24.0853 27.9077 24.0833 27.0833V3.74993C24.0833 2.92354 24.3633 2.23132 24.9233 1.67326C25.4833 1.11521 26.1756 0.835206 27 0.833262C27.8244 0.831318 28.5176 1.11132 29.0796 1.67326C29.6415 2.23521 29.9206 2.92743 29.9167 3.74993V27.0833C29.9167 27.9097 29.6367 28.6028 29.0767 29.1628C28.5167 29.7228 27.8244 30.0019 27 29.9999ZM27 56.2499C23.3542 56.2499 19.9397 55.5577 16.7567 54.1733C13.5736 52.7888 10.8028 50.9173 8.44417 48.5587C6.08556 46.2001 4.21403 43.4292 2.82958 40.2462C1.44514 37.0631 0.751944 33.6477 0.75 29.9999C0.75 27.0346 1.23611 24.154 2.20833 21.3578C3.18056 18.5617 4.59028 15.998 6.4375 13.6666C6.97222 12.986 7.65278 12.6584 8.47917 12.6837C9.30556 12.709 10.0347 13.0366 10.6667 13.6666C11.2014 14.2013 11.4444 14.8576 11.3958 15.6353C11.3472 16.4131 11.0799 17.1423 10.5937 17.8228C9.28125 19.5728 8.28472 21.493 7.60417 23.5833C6.92361 25.6735 6.58333 27.8124 6.58333 29.9999C6.58333 35.6874 8.56472 40.5126 12.5275 44.4753C16.4903 48.4381 21.3144 50.4185 27 50.4166C32.6856 50.4146 37.5107 48.4342 41.4754 44.4753C45.4401 40.5165 47.4206 35.6913 47.4167 29.9999C47.4167 27.7638 47.089 25.588 46.4337 23.4724C45.7785 21.3569 44.745 19.4251 43.3333 17.677C42.8472 17.0451 42.5799 16.3528 42.5312 15.6003C42.4826 14.8478 42.7257 14.2033 43.2604 13.6666C43.8438 13.0833 44.5486 12.7799 45.375 12.7566C46.2014 12.7333 46.8819 13.0366 47.4167 13.6666C49.3125 15.9999 50.7592 18.552 51.7567 21.3228C52.7542 24.0937 53.2519 26.986 53.25 29.9999C53.25 33.6458 52.5578 37.0612 51.1733 40.2462C49.7889 43.4312 47.9174 46.202 45.5588 48.5587C43.2001 50.9153 40.4293 52.7869 37.2462 54.1733C34.0632 55.5596 30.6478 56.2519 27 56.2499Z" fill="#ADADAD"/>
</svg>
