<svg width="70" height="51" viewBox="0 0 70 51" fill="none" xmlns="http://www.w3.org/2000/svg">
<path d="M35 50.2501C32.9583 50.2501 31.2326 49.5452 29.8229 48.1355C28.4132 46.7258 27.7083 45.0001 27.7083 42.9584C27.7083 40.9167 28.4132 39.1911 29.8229 37.7813C31.2326 36.3716 32.9583 35.6667 35 35.6667C37.0417 35.6667 38.7674 36.3716 40.1771 37.7813C41.5868 39.1911 42.2917 40.9167 42.2917 42.9584C42.2917 45.0001 41.5868 46.7258 40.1771 48.1355C38.7674 49.5452 37.0417 50.2501 35 50.2501ZM18.5208 33.7709L12.3958 27.5001C15.2639 24.632 18.6307 22.3599 22.4963 20.6838C26.3618 19.0077 30.5297 18.1687 35 18.1667C39.4703 18.1648 43.6392 19.0155 47.5067 20.7188C51.3742 22.4222 54.74 24.7312 57.6042 27.6459L51.4792 33.7709C49.3403 31.632 46.8611 29.9549 44.0417 28.7397C41.2222 27.5244 38.2083 26.9167 35 26.9167C31.7917 26.9167 28.7778 27.5244 25.9583 28.7397C23.1389 29.9549 20.6597 31.632 18.5208 33.7709ZM6.125 21.3751L0 15.2501C4.47222 10.6806 9.69792 7.10772 15.6771 4.53133C21.6562 1.95494 28.0972 0.666748 35 0.666748C41.9028 0.666748 48.3438 1.95494 54.3229 4.53133C60.3021 7.10772 65.5278 10.6806 70 15.2501L63.875 21.3751C60.1319 17.632 55.7939 14.7037 50.8608 12.5901C45.9278 10.4765 40.6408 9.41869 35 9.41675C29.3592 9.4148 24.0732 10.4726 19.1421 12.5901C14.211 14.7076 9.87194 17.6359 6.125 21.3751Z" fill="#ADADAD"/>
</svg>
