<svg width="51" height="68" viewBox="0 0 51 68" fill="none" xmlns="http://www.w3.org/2000/svg">
<path d="M50.3333 3.99979L50.3333 63.9998C50.3314 64.6073 50.1639 65.2027 49.8487 65.722C49.5336 66.2414 49.0828 66.6649 48.5448 66.9471C48.0069 67.2293 47.4021 67.3594 46.7957 67.3235C46.1893 67.2875 45.6042 67.0869 45.1033 66.7431L1.76999 36.7431C-0.0266798 35.4998 -0.02668 32.5065 1.76999 31.2598L45.1033 1.25979C45.6031 0.912544 46.1885 0.708908 46.796 0.671012C47.4034 0.633115 48.0096 0.762407 48.5487 1.04484C49.0878 1.32727 49.5392 1.75205 49.8538 2.27301C50.1684 2.79397 50.3343 3.39119 50.3333 3.99979ZM9.52332 33.9998L43.6667 57.6398L43.6667 10.3598L9.52332 33.9998Z" fill="#4D4D4D"/>
</svg>
