<svg width="51" height="68" viewBox="0 0 51 68" fill="none" xmlns="http://www.w3.org/2000/svg">
<path d="M0.666559 3.99979L0.666556 63.9998C0.66846 64.6073 0.836004 65.2027 1.15115 65.722C1.4663 66.2414 1.91711 66.6649 2.45506 66.9471C2.99302 67.2293 3.59776 67.3594 4.20417 67.3235C4.81058 67.2875 5.3957 67.0869 5.89656 66.7431L49.2299 36.7431C51.0266 35.4998 51.0266 32.5065 49.2299 31.2598L5.89656 1.25979C5.39675 0.912544 4.81133 0.708908 4.20391 0.671012C3.59649 0.633115 2.9903 0.762407 2.4512 1.04484C1.9121 1.32727 1.46071 1.75205 1.14608 2.27301C0.831445 2.79397 0.6656 3.39119 0.666559 3.99979ZM41.4766 33.9998L7.33322 57.6398L7.33323 10.3598L41.4766 33.9998Z" fill="#4D4D4D"/>
</svg>
