<svg width="10" height="8" viewBox="0 0 10 8" fill="none" xmlns="http://www.w3.org/2000/svg">
<path d="M9.94285 0.285847C9.90041 0.19969 9.83672 0.127531 9.75864 0.0771551C9.68056 0.0267796 9.59107 0.000101481 9.49981 0H0.498977C0.40789 0.000401257 0.318629 0.0272763 0.240793 0.0777349C0.162957 0.128193 0.0994914 0.200326 0.0572204 0.286377C0.0149495 0.372427 -0.004527 0.469138 0.000885481 0.566111C0.00629796 0.663083 0.0363946 0.756648 0.0879389 0.836742L4.58836 7.7696C4.63423 7.84066 4.69561 7.89876 4.76722 7.93889C4.83882 7.97903 4.9185 8 4.99939 8C5.08029 8 5.15997 7.97903 5.23157 7.93889C5.30318 7.89876 5.36456 7.84066 5.41043 7.7696L9.91085 0.836742C9.9629 0.756812 9.9934 0.663193 9.99904 0.566065C10.0047 0.468937 9.98525 0.372018 9.94285 0.285847ZM4.99939 6.52915L1.45307 1.06659H8.54572L4.99939 6.52915Z" fill="#5BACF6"/>
</svg>
