<svg width="24" height="24" viewBox="0 0 24 24" fill="none" xmlns="http://www.w3.org/2000/svg">
<path fill-rule="evenodd" clip-rule="evenodd" d="M5.46252 0.852429C9.80755 0.370805 14.1925 0.370805 18.5375 0.852429C20.9113 1.11743 22.825 2.98618 23.1038 5.36868C23.619 9.7745 23.619 14.2254 23.1038 18.6312C22.825 21.0137 20.9113 22.8824 18.5388 23.1487C14.1933 23.6304 9.80796 23.6304 5.46252 23.1487C3.08877 22.8824 1.17502 21.0137 0.896271 18.6324C0.380931 14.2262 0.380931 9.77491 0.896271 5.36868C1.17502 2.98618 3.08877 1.11743 5.46252 0.852429ZM18.25 4.49993C17.9185 4.49993 17.6006 4.63163 17.3661 4.86605C17.1317 5.10047 17 5.41841 17 5.74993C17 6.08145 17.1317 6.39939 17.3661 6.63381C17.6006 6.86823 17.9185 6.99993 18.25 6.99993C18.5815 6.99993 18.8995 6.86823 19.1339 6.63381C19.3683 6.39939 19.5 6.08145 19.5 5.74993C19.5 5.41841 19.3683 5.10047 19.1339 4.86605C18.8995 4.63163 18.5815 4.49993 18.25 4.49993ZM6.06252 11.9999C6.06252 10.4252 6.68808 8.91498 7.80157 7.80148C8.91507 6.68799 10.4253 6.06243 12 6.06243C13.5747 6.06243 15.085 6.68799 16.1985 7.80148C17.312 8.91498 17.9375 10.4252 17.9375 11.9999C17.9375 13.5747 17.312 15.0849 16.1985 16.1984C15.085 17.3119 13.5747 17.9374 12 17.9374C10.4253 17.9374 8.91507 17.3119 7.80157 16.1984C6.68808 15.0849 6.06252 13.5747 6.06252 11.9999Z" fill="white"/>
</svg>
