<svg width="16" height="12" viewBox="0 0 16 12" fill="none" xmlns="http://www.w3.org/2000/svg">
<path d="M1.8452 11.8334C1.46131 11.8334 1.14104 11.7051 0.884369 11.4484C0.627702 11.1917 0.499091 10.8712 0.498535 10.4867V1.51341C0.498535 1.12953 0.627146 0.809248 0.884369 0.552581C1.14159 0.295915 1.46159 0.167304 1.84437 0.166748H14.1527C14.536 0.166748 14.856 0.295359 15.1127 0.552581C15.3694 0.809803 15.498 1.13008 15.4985 1.51341V10.4876C15.4985 10.8709 15.3699 11.1912 15.1127 11.4484C14.8555 11.7056 14.5355 11.834 14.1527 11.8334H1.8452ZM7.99854 6.09675L14.6652 1.73758L14.4085 1.00008L7.99854 5.16675L1.58854 1.00008L1.33187 1.73758L7.99854 6.09675Z" fill="white"/>
</svg>
