<svg width="10" height="10" viewBox="0 0 10 10" fill="none" xmlns="http://www.w3.org/2000/svg">
<path d="M3.61996 2.68254L1.44262 0.504096L1.69961 0.249259C2.03169 -0.0830862 2.61196 -0.0830862 2.94405 0.249259L3.8746 1.18053C4.04122 1.34729 4.13275 1.56866 4.13275 1.80353C4.13275 2.0384 4.04122 2.25977 3.87577 2.42594L3.61996 2.68254ZM7.56744 6.12108C7.89953 5.78873 8.4798 5.78873 8.81188 6.12108L9.74243 7.05235C9.90847 7.21911 10 7.44047 10 7.67535C10 7.91022 9.90847 8.13159 9.74125 8.29893L9.48486 8.5526L7.31221 6.37826L7.56744 6.12108ZM0.649369 1.30031L0.85707 1.09245L3.03264 3.26972L2.65127 3.6508C2.62395 3.67808 2.60228 3.71047 2.58749 3.74614C2.5727 3.78181 2.56509 3.82005 2.56509 3.85867C2.56509 3.89728 2.5727 3.93552 2.58749 3.97119C2.60228 4.00686 2.62395 4.03926 2.65127 4.06653L5.92872 7.34653C5.98467 7.39977 6.05892 7.42946 6.13613 7.42946C6.21333 7.42946 6.28758 7.39977 6.34353 7.34653L6.7249 6.96486L8.89696 9.1433L8.68926 9.35116C8.53671 9.50383 7.9582 10 6.89623 10C5.94808 10 4.39913 9.58193 2.40778 7.58962C-1.5661 3.61146 0.554907 1.39485 0.649369 1.30031Z" fill="white"/>
</svg>
