<svg width="15" height="12" viewBox="0 0 15 12" fill="none" xmlns="http://www.w3.org/2000/svg">
<path d="M14.9129 0.893039C14.8492 0.774574 14.7537 0.675355 14.6366 0.606088C14.5195 0.536822 14.3853 0.50014 14.2484 0.5H0.748396C0.611779 0.500552 0.4779 0.537505 0.361157 0.606885C0.244414 0.676266 0.149223 0.775449 0.0858227 0.893768C0.0224221 1.01209 -0.00678987 1.14507 0.0013281 1.2784C0.00944607 1.41174 0.0545869 1.54039 0.131896 1.65052L6.8819 11.1832C6.9507 11.2809 7.04277 11.3608 7.15016 11.416C7.25756 11.4712 7.37707 11.5 7.4984 11.5C7.61972 11.5 7.73923 11.4712 7.84663 11.416C7.95403 11.3608 8.04609 11.2809 8.1149 11.1832L14.8649 1.65052C14.943 1.54062 14.9887 1.41189 14.9972 1.27834C15.0056 1.14479 14.9765 1.01152 14.9129 0.893039ZM7.4984 9.47758L2.1794 1.96657H12.8174L7.4984 9.47758Z" fill="white"/>
</svg>
