<svg width="15" height="16" viewBox="0 0 15 16" fill="none" xmlns="http://www.w3.org/2000/svg">
<path d="M9.99518 1.42834C9.34029 0.724888 8.4256 0.337502 7.41602 0.337502C6.40104 0.337502 5.48333 0.722544 4.83147 1.42165C4.17255 2.12845 3.8515 3.08905 3.92688 4.12632C4.0763 6.17274 5.6415 7.83746 7.41602 7.83746C9.19053 7.83746 10.753 6.17307 10.9048 4.12699C10.9812 3.09909 10.6581 2.1405 9.99518 1.42834ZM13.3389 15.3374H1.4931C1.33805 15.3394 1.1845 15.307 1.04362 15.2425C0.902742 15.1781 0.778079 15.0832 0.678701 14.9648C0.459957 14.7046 0.371786 14.3494 0.437073 13.9901C0.721104 12.4225 1.60752 11.1056 3.00075 10.1812C4.23851 9.36055 5.8064 8.90888 7.41602 8.90888C9.02563 8.90888 10.5935 9.36089 11.8313 10.1812C13.2245 11.1053 14.1109 12.4221 14.395 13.9898C14.4602 14.349 14.3721 14.7043 14.1533 14.9644C14.054 15.0829 13.9293 15.1779 13.7885 15.2424C13.6476 15.3069 13.494 15.3394 13.3389 15.3374Z" fill="#B23C3C"/>
</svg>
