<svg width="63" height="57" viewBox="0 0 63 57" fill="none" xmlns="http://www.w3.org/2000/svg">
<path d="M28.175 0.316876C27.8531 0.140726 27.492 0.0484009 27.125 0.0484009C26.758 0.0484009 26.3969 0.140726 26.075 0.316876L3.9375 12.3919C3.05375 12.8731 2.33188 13.56 1.80688 14.3738L27.125 28.1812L52.4431 14.3738C51.9102 13.5462 51.1775 12.8661 50.3125 12.3963L28.175 0.316876ZM0.875 39.425V18.8494L26.075 32.5956C26.3969 32.7718 26.758 32.8641 27.125 32.8641C27.492 32.8641 27.8531 32.7718 28.175 32.5956L53.375 18.8494V39.425C53.375 41.7456 52.4531 43.9712 50.8122 45.6122C49.1712 47.2531 46.9456 48.175 44.625 48.175H9.625C7.30436 48.175 5.07876 47.2531 3.43782 45.6122C1.79687 43.9712 0.875 41.7456 0.875 39.425ZM10.7975 52.55C11.5655 53.8801 12.67 54.9847 14.0001 55.7527C15.3303 56.5206 16.8391 56.925 18.375 56.925H44.625C49.2663 56.925 53.7175 55.0813 56.9994 51.7994C60.2813 48.5175 62.125 44.0663 62.125 39.425V21.925C62.125 20.3891 61.7206 18.8803 60.9527 17.5501C60.1847 16.22 59.0801 15.1155 57.75 14.3475V39.425C57.75 42.906 56.3672 46.2444 53.9058 48.7058C51.4444 51.1672 48.106 52.55 44.625 52.55H10.7975Z" fill="#B23C3C"/>
</svg>
