<svg width="18" height="19" viewBox="0 0 18 19" fill="none" xmlns="http://www.w3.org/2000/svg">
<path d="M7.6 13.875L14.65 6.82505L13.25 5.42505L7.6 11.075L4.75 8.22505L3.35 9.62505L7.6 13.875ZM2 18.675C1.45 18.675 0.979333 18.4794 0.588 18.088C0.196667 17.6967 0.000666667 17.2257 0 16.675V2.67505C0 2.12505 0.196 1.65438 0.588 1.26305C0.98 0.871716 1.45067 0.675715 2 0.675049H16C16.55 0.675049 17.021 0.871049 17.413 1.26305C17.805 1.65505 18.0007 2.12572 18 2.67505V16.675C18 17.225 17.8043 17.696 17.413 18.088C17.0217 18.48 16.5507 18.6757 16 18.675H2Z" fill="#B23C3C"/>
</svg>
