<svg width="56" height="62" viewBox="0 0 56 62" fill="none" xmlns="http://www.w3.org/2000/svg">
<path d="M40.8333 35.675V44.425H32.0833V50.2583H40.8333V59.0083H46.6667V50.2583H55.4167V44.425H46.6667V35.675M26.25 0.674988C24.7029 0.674988 23.2192 1.28957 22.1252 2.38353C21.0312 3.47749 20.4167 4.96123 20.4167 6.50832C20.3962 6.78989 20.3962 7.07258 20.4167 7.35415C12.0167 9.83332 5.83333 17.65 5.83333 26.925V44.425L0 50.2583V53.175H27.2708C26.6016 51.3027 26.2564 49.33 26.25 47.3417C26.25 42.7004 28.0937 38.2492 31.3756 34.9673C34.6575 31.6854 39.1087 29.8417 43.75 29.8417C44.7278 29.8475 45.7035 29.9353 46.6667 30.1042V26.925C46.6667 17.65 40.4833 9.83332 32.0833 7.35415C32.1038 7.07258 32.1038 6.78989 32.0833 6.50832C32.0833 4.96123 31.4688 3.47749 30.3748 2.38353C29.2808 1.28957 27.7971 0.674988 26.25 0.674988ZM20.4167 56.0917C20.4167 57.6388 21.0312 59.1225 22.1252 60.2164C23.2192 61.3104 24.7029 61.925 26.25 61.925C27.198 61.9249 28.1316 61.6938 28.9702 61.2516C29.8087 60.8095 30.5269 60.1697 31.0625 59.3875C30.1193 58.3888 29.297 57.2826 28.6125 56.0917H20.4167Z" fill="#B23C3C"/>
</svg>
